<svg xmlns="http://www.w3.org/2000/svg" xmlns:xlink="http://www.w3.org/1999/xlink" enable-background="new 0 0 192 192" height="192" viewBox="0 0 192 192" width="192"><g><defs><rect height="192" id="SVGID_1_" width="192"/></defs><clipPath id="SVGID_2_"><use overflow="visible" xlink:href="#SVGID_1_"/></clipPath><g clip-path="url(#SVGID_2_)"><path d="M121.11,60.87l5.89,0.11l16.01-16.01l0.78-6.78C131.07,26.87,114.33,19.98,96,19.98 c-33.19,0-61.18,22.57-69.48,53.17c1.75-1.21,5.48-0.31,5.48-0.31l32-5.26c0,0,1.66-2.72,2.47-2.55 C73.79,57.02,84.32,51.98,96,51.98C105.5,51.98,114.24,55.32,121.11,60.87z" fill="#EA4335"/><path d="M165.5,73.19c-3.71-13.72-11.39-25.82-21.72-35.01l-22.68,22.68C130.18,68.2,136,79.42,136,91.98v4 c11.03,0,20,8.97,20,20s-8.97,20-20,20H96L92,140v24l4,3.98h40c28.67,0,52-23.33,52-52C188,98.25,179.08,82.58,165.5,73.19z" fill="#4285F4"/><path d="M56,167.98h39.97v-32H56c-2.94,0-5.72-0.65-8.24-1.8L42,135.95l-16.02,16.02l-1.4,5.41 C33.31,164.02,44.2,167.98,56,167.98z" fill="#34A853"/><path d="M56,63.98c-28.67,0-52,23.33-52,52c0,16.88,8.09,31.91,20.6,41.41l23.19-23.19 C40.85,131.06,36,124.08,36,115.98c0-11.03,8.97-20,20-20c8.1,0,15.08,4.85,18.22,11.79l23.19-23.19 C87.91,72.07,72.88,63.98,56,63.98z" fill="#FBBC05"/></g></g></svg>